<?xml version="1.0" encoding="utf-8"?>
<!-- Generator: Adobe Illustrator 24.0.0, SVG Export Plug-In . SVG Version: 6.00 Build 0)  -->
<svg version="1.1" id="Слой_1" xmlns="http://www.w3.org/2000/svg" xmlns:xlink="http://www.w3.org/1999/xlink" x="0px" y="0px"
	 viewBox="0 0 22 22" style="enable-background:new 0 0 22 22;" xml:space="preserve">
<style type="text/css">
	.st0{fill:#4D5257;}
</style>
<g>
	<g>
		<g>
			<path class="st0" d="M13.9,9l-0.2,2.2h-1.7c0,2.8,0,6.3,0,6.3H9.4c0,0,0-3.4,0-6.3H8.2V9h1.2V7.5c0-1,0.5-2.6,2.6-2.6h1.9V7
				c0,0-1.1,0-1.4,0c-0.2,0-0.6,0.1-0.6,0.6V9H13.9z"/>
		</g>
		<g>
			<path class="st0" d="M13.9,9l-0.2,2.2h-1.7c0,2.8,0,6.3,0,6.3H9.4c0,0,0-3.4,0-6.3H8.2V9h1.2V7.5c0-1,0.5-2.6,2.6-2.6h1.9V7
				c0,0-1.1,0-1.4,0c-0.2,0-0.6,0.1-0.6,0.6V9H13.9z"/>
		</g>
	</g>
	<g>
		<path class="st0" d="M13.9,9l-0.2,2.2h-1.7c0,2.8,0,6.3,0,6.3H9.4c0,0,0-3.4,0-6.3H8.2V9h1.2V7.5c0-1,0.5-2.6,2.6-2.6h1.9V7
			c0,0-1.1,0-1.4,0c-0.2,0-0.6,0.1-0.6,0.6V9H13.9z"/>
	</g>
	<g>
		<path class="st0" d="M11,22C4.9,22,0,17.1,0,11S4.9,0,11,0s11,4.9,11,11C22,17.1,17.1,22,11,22z M11,0.8C5.4,0.8,0.8,5.4,0.8,11
			S5.4,21.2,11,21.2S21.2,16.6,21.2,11S16.6,0.8,11,0.8z"/>
	</g>
</g>
</svg>
