<?xml version="1.0" encoding="utf-8"?>
<!-- Generator: Adobe Illustrator 24.0.0, SVG Export Plug-In . SVG Version: 6.00 Build 0)  -->
<svg version="1.1" id="Слой_1" xmlns="http://www.w3.org/2000/svg" xmlns:xlink="http://www.w3.org/1999/xlink" x="0px" y="0px"
	 viewBox="0 0 22 22" style="enable-background:new 0 0 22 22;" xml:space="preserve">
<style type="text/css">
	.st0{fill:#4D5257;}
</style>
<g>
	<g>
		<path class="st0" d="M14.8,4.5H7.2c-1.3,0-2.4,1.1-2.4,2.4v7.7c0,1.4,1.1,2.4,2.4,2.4h7.6c1.3,0,2.4-1.1,2.4-2.4V6.9
			C17.2,5.5,16.1,4.5,14.8,4.5z M13.7,5.9h2.1V8l-2.1,0V5.9z M9.3,9.5c0.4-0.6,1-1,1.7-1s1.4,0.4,1.8,1c0.3,0.4,0.4,0.8,0.4,1.3
			c0,1.2-1,2.2-2.2,2.2c-1.2,0-2.2-1-2.2-2.2C8.8,10.2,9,9.8,9.3,9.5z M16,14.6c0,0.7-0.5,1.2-1.2,1.2H7.2c-0.7,0-1.2-0.6-1.2-1.2
			V9.4h1.8c-0.2,0.4-0.2,0.8-0.2,1.3c0,1.9,1.5,3.4,3.4,3.4c1.9,0,3.4-1.5,3.4-3.4c0-0.5-0.1-0.9-0.3-1.3H16L16,14.6L16,14.6z"/>
	</g>
	<g>
		<path class="st0" d="M11,22C4.9,22,0,17.1,0,11S4.9,0,11,0s11,4.9,11,11S17.1,22,11,22z M11,0.8C5.4,0.8,0.8,5.4,0.8,11
			c0,5.6,4.6,10.2,10.2,10.2S21.2,16.6,21.2,11C21.2,5.4,16.6,0.8,11,0.8z"/>
	</g>
</g>
</svg>
