<?xml version="1.0" encoding="utf-8"?>
<!-- Generator: Adobe Illustrator 24.0.0, SVG Export Plug-In . SVG Version: 6.00 Build 0)  -->
<svg version="1.1" id="Слой_1" xmlns="http://www.w3.org/2000/svg" xmlns:xlink="http://www.w3.org/1999/xlink" x="0px" y="0px"
	 viewBox="0 0 22 22" style="enable-background:new 0 0 22 22;" xml:space="preserve">
<style type="text/css">
	.st0{fill:#4D5257;}
</style>
<g>
	<g>
		<g>
			<path class="st0" d="M17.5,7.3c-0.3,0.5-0.8,1-1.2,1.3v0.3c0,3.3-2.5,7-6.9,7c-1.4,0-2.7-0.4-3.7-1.1c0.2,0,0.4,0.1,0.6,0.1
				c1.1,0,2.2-0.4,3-1.1c-1,0-1.9-0.7-2.3-1.7c0.2,0,0.3,0,0.5,0c0.2,0,0.4,0,0.7-0.1c-1.1-0.2-2-1.3-2-2.4c0,0,0,0,0,0
				c0.3,0.2,0.7,0.3,1.1,0.3C6.5,9.4,6.1,8.7,6.1,7.8c0-0.4,0.1-0.9,0.3-1.2c1.2,1.5,3,2.5,5,2.6c0-0.2-0.1-0.4-0.1-0.6
				c0-1.4,1.1-2.5,2.5-2.5c0.7,0,1.3,0.3,1.8,0.8c0.5-0.1,1-0.3,1.5-0.6c-0.2,0.6-0.6,1.1-1.1,1.4C16.6,7.6,17,7.4,17.5,7.3z"/>
		</g>
		<g>
			<path class="st0" d="M17.5,7.3c-0.3,0.5-0.8,1-1.2,1.3v0.3c0,3.3-2.5,7-6.9,7c-1.4,0-2.7-0.4-3.7-1.1c0.2,0,0.4,0.1,0.6,0.1
				c1.1,0,2.2-0.4,3-1.1c-1,0-1.9-0.7-2.3-1.7c0.2,0,0.3,0,0.5,0c0.2,0,0.4,0,0.7-0.1c-1.1-0.2-2-1.3-2-2.4c0,0,0,0,0,0
				c0.3,0.2,0.7,0.3,1.1,0.3C6.5,9.4,6.1,8.7,6.1,7.8c0-0.4,0.1-0.9,0.3-1.2c1.2,1.5,3,2.5,5,2.6c0-0.2-0.1-0.4-0.1-0.6
				c0-1.4,1.1-2.5,2.5-2.5c0.7,0,1.3,0.3,1.8,0.8c0.5-0.1,1-0.3,1.5-0.6c-0.2,0.6-0.6,1.1-1.1,1.4C16.6,7.6,17,7.4,17.5,7.3z"/>
		</g>
	</g>
	<g>
		<path class="st0" d="M17.5,7.3c-0.3,0.5-0.8,1-1.2,1.3v0.3c0,3.3-2.5,7-6.9,7c-1.4,0-2.7-0.4-3.7-1.1c0.2,0,0.4,0.1,0.6,0.1
			c1.1,0,2.2-0.4,3-1.1c-1,0-1.9-0.7-2.3-1.7c0.2,0,0.3,0,0.5,0c0.2,0,0.4,0,0.7-0.1c-1.1-0.2-2-1.3-2-2.4c0,0,0,0,0,0
			c0.3,0.2,0.7,0.3,1.1,0.3C6.5,9.4,6.1,8.7,6.1,7.8c0-0.4,0.1-0.9,0.3-1.2c1.2,1.5,3,2.5,5,2.6c0-0.2-0.1-0.4-0.1-0.6
			c0-1.4,1.1-2.5,2.5-2.5c0.7,0,1.3,0.3,1.8,0.8c0.5-0.1,1-0.3,1.5-0.6c-0.2,0.6-0.6,1.1-1.1,1.4C16.6,7.6,17,7.4,17.5,7.3z"/>
	</g>
	<g>
		<path class="st0" d="M11,22C4.9,22,0,17.1,0,11S4.9,0,11,0s11,4.9,11,11S17.1,22,11,22z M11,0.8C5.4,0.8,0.8,5.4,0.8,11
			S5.4,21.2,11,21.2S21.2,16.6,21.2,11S16.6,0.8,11,0.8z"/>
	</g>
</g>
</svg>
