<?xml version="1.0" encoding="utf-8"?>
<!-- Generator: Adobe Illustrator 24.0.0, SVG Export Plug-In . SVG Version: 6.00 Build 0)  -->
<svg version="1.1" id="Слой_1" xmlns="http://www.w3.org/2000/svg" xmlns:xlink="http://www.w3.org/1999/xlink" x="0px" y="0px"
	 viewBox="0 0 22 21.9" style="enable-background:new 0 0 22 21.9;" xml:space="preserve">
<style type="text/css">
	.st0{fill:#4D5257;}
</style>
<g>
	<g>
		<g>
			<path class="st0" d="M16.3,11.2c-0.4,0.5-0.3,0.8,0.1,1.2c0.5,0.5,1,1,1.5,1.5c0.2,0.2,0.4,0.5,0.5,0.8c0.2,0.4,0,0.8-0.3,0.9
				h-2.2c-0.6,0-1-0.2-1.4-0.6c-0.3-0.3-0.6-0.6-0.9-1c-0.1-0.1-0.3-0.3-0.4-0.4c-0.3-0.2-0.6-0.1-0.7,0.2c-0.2,0.3-0.2,0.7-0.2,1
				c0,0.5-0.2,0.7-0.7,0.7c-1.1,0-2.1-0.1-3.1-0.7c-0.8-0.5-1.5-1.2-2.1-2c-1.1-1.5-2-3.3-2.8-5C3.5,7.5,3.6,7.3,4,7.3
				c0.7,0,1.4,0,2.1,0c0.3,0,0.5,0.2,0.6,0.4c0.4,1,0.9,1.9,1.5,2.7c0.2,0.2,0.3,0.4,0.6,0.6c0.2,0.2,0.4,0.1,0.6-0.2
				c0.1-0.2,0.1-0.4,0.1-0.6c0-0.7,0-1.4-0.1-2c0-0.4-0.3-0.7-0.7-0.8c-0.2,0-0.2-0.1-0.1-0.2c0.2-0.2,0.3-0.4,0.7-0.4h2.5
				c0.4,0.1,0.5,0.3,0.5,0.7v2.8c0,0.2,0.1,0.6,0.3,0.7c0.2,0.1,0.4-0.1,0.5-0.2c0.6-0.7,1-1.4,1.4-2.2c0.2-0.3,0.3-0.7,0.5-1
				c0.1-0.3,0.3-0.4,0.6-0.4h2.3c0.1,0,0.1,0,0.2,0c0.4,0.1,0.5,0.2,0.4,0.6c-0.2,0.6-0.6,1.1-0.9,1.6
				C17.1,10.1,16.6,10.6,16.3,11.2z"/>
		</g>
		<g>
			<path class="st0" d="M16.3,11.2c-0.4,0.5-0.3,0.8,0.1,1.2c0.5,0.5,1,1,1.5,1.5c0.2,0.2,0.4,0.5,0.5,0.8c0.2,0.4,0,0.8-0.3,0.9
				h-2.2c-0.6,0-1-0.2-1.4-0.6c-0.3-0.3-0.6-0.6-0.9-1c-0.1-0.1-0.3-0.3-0.4-0.4c-0.3-0.2-0.6-0.1-0.7,0.2c-0.2,0.3-0.2,0.7-0.2,1
				c0,0.5-0.2,0.7-0.7,0.7c-1.1,0-2.1-0.1-3.1-0.7c-0.8-0.5-1.5-1.2-2.1-2c-1.1-1.5-2-3.3-2.8-5C3.5,7.5,3.6,7.3,4,7.3
				c0.7,0,1.4,0,2.1,0c0.3,0,0.5,0.2,0.6,0.4c0.4,1,0.9,1.9,1.5,2.7c0.2,0.2,0.3,0.4,0.6,0.6c0.2,0.2,0.4,0.1,0.6-0.2
				c0.1-0.2,0.1-0.4,0.1-0.6c0-0.7,0-1.4-0.1-2c0-0.4-0.3-0.7-0.7-0.8c-0.2,0-0.2-0.1-0.1-0.2c0.2-0.2,0.3-0.4,0.7-0.4h2.5
				c0.4,0.1,0.5,0.3,0.5,0.7v2.8c0,0.2,0.1,0.6,0.3,0.7c0.2,0.1,0.4-0.1,0.5-0.2c0.6-0.7,1-1.4,1.4-2.2c0.2-0.3,0.3-0.7,0.5-1
				c0.1-0.3,0.3-0.4,0.6-0.4h2.3c0.1,0,0.1,0,0.2,0c0.4,0.1,0.5,0.2,0.4,0.6c-0.2,0.6-0.6,1.1-0.9,1.6
				C17.1,10.1,16.6,10.6,16.3,11.2z"/>
		</g>
	</g>
	<g>
		<path class="st0" d="M16.3,11.2c-0.4,0.5-0.3,0.8,0.1,1.2c0.5,0.5,1,1,1.5,1.5c0.2,0.2,0.4,0.5,0.5,0.8c0.2,0.4,0,0.8-0.3,0.9
			h-2.2c-0.6,0-1-0.2-1.4-0.6c-0.3-0.3-0.6-0.6-0.9-1c-0.1-0.1-0.3-0.3-0.4-0.4c-0.3-0.2-0.6-0.1-0.7,0.2c-0.2,0.3-0.2,0.7-0.2,1
			c0,0.5-0.2,0.7-0.7,0.7c-1.1,0-2.1-0.1-3.1-0.7c-0.8-0.5-1.5-1.2-2.1-2c-1.1-1.5-2-3.3-2.8-5C3.5,7.5,3.6,7.3,4,7.3
			c0.7,0,1.4,0,2.1,0c0.3,0,0.5,0.2,0.6,0.4c0.4,1,0.9,1.9,1.5,2.7c0.2,0.2,0.3,0.4,0.6,0.6c0.2,0.2,0.4,0.1,0.6-0.2
			c0.1-0.2,0.1-0.4,0.1-0.6c0-0.7,0-1.4-0.1-2c0-0.4-0.3-0.7-0.7-0.8c-0.2,0-0.2-0.1-0.1-0.2c0.2-0.2,0.3-0.4,0.7-0.4h2.5
			c0.4,0.1,0.5,0.3,0.5,0.7v2.8c0,0.2,0.1,0.6,0.3,0.7c0.2,0.1,0.4-0.1,0.5-0.2c0.6-0.7,1-1.4,1.4-2.2c0.2-0.3,0.3-0.7,0.5-1
			c0.1-0.3,0.3-0.4,0.6-0.4h2.3c0.1,0,0.1,0,0.2,0c0.4,0.1,0.5,0.2,0.4,0.6c-0.2,0.6-0.6,1.1-0.9,1.6C17.1,10.1,16.6,10.6,16.3,11.2
			z"/>
	</g>
	<g>
		<path class="st0" d="M11,22C4.9,22,0,17.1,0,11S4.9,0,11,0s11,4.9,11,11S17.1,22,11,22z M11,0.8C5.4,0.8,0.8,5.4,0.8,11
			c0,5.6,4.6,10.2,10.2,10.2S21.2,16.6,21.2,11C21.2,5.4,16.6,0.8,11,0.8z"/>
	</g>
</g>
</svg>
